<?xml version="1.0" standalone="no"?>
<!DOCTYPE svg PUBLIC "-//W3C//DTD SVG 20010904//EN"
 "http://www.w3.org/TR/2001/REC-SVG-20010904/DTD/svg10.dtd">
<svg version="1.0" xmlns="http://www.w3.org/2000/svg"
 width="500.000000pt" height="500.000000pt" viewBox="0 0 500.000000 500.000000"
 preserveAspectRatio="xMidYMid meet">
<metadata>
Created by potrace 1.14, written by Peter Selinger 2001-2017
</metadata>
<g transform="translate(0.000000,500.000000) scale(0.100000,-0.100000)"
fill="#000000" stroke="none">
<path d="M0 2500 l0 -2500 2500 0 2500 0 0 2500 0 2500 -2500 0 -2500 0 0
-2500z m2285 575 c31 -31 32 -66 1 -102 -19 -22 -32 -28 -66 -28 -80 0 -118
89 -59 138 32 26 94 22 124 -8z m2265 -345 l0 -320 -75 0 -75 0 0 30 0 31 -27
-25 c-60 -56 -174 -54 -246 5 -57 47 -82 109 -81 204 0 88 19 138 71 187 74
70 194 75 265 11 17 -15 18 -11 18 90 l0 107 75 0 75 0 0 -320z m-3850 95 c42
-104 80 -199 84 -210 6 -15 28 30 93 193 l85 213 87 -3 86 -3 3 -302 2 -303
-75 0 -75 0 0 177 c0 97 -3 174 -6 170 -3 -3 -34 -81 -68 -174 l-63 -168 -60
-3 -61 -3 -29 78 c-17 43 -45 119 -63 168 -18 50 -37 94 -42 100 -4 5 -8 -71
-8 -168 l0 -177 -70 0 -70 0 0 305 0 306 86 -3 87 -3 77 -190z m1270 125 l0
-60 45 0 45 0 0 -60 0 -60 -45 0 -46 0 3 -112 3 -113 43 -3 42 -3 0 -66 0 -66
-74 5 c-83 5 -116 21 -146 71 -17 27 -20 51 -20 160 l0 127 -30 0 c-30 0 -30
0 -30 59 0 58 1 60 28 63 26 3 27 6 30 61 l3 57 74 0 75 0 0 -60z m-379 -65
c24 -17 57 -50 74 -74 26 -38 30 -52 33 -124 3 -78 2 -85 -30 -137 -82 -136
-258 -161 -377 -54 -62 56 -85 113 -79 199 5 85 44 148 118 193 52 32 59 33
137 30 72 -3 86 -7 124 -33z m1155 -13 c82 -42 124 -117 124 -221 -1 -147 -97
-244 -245 -245 -106 -1 -183 43 -228 128 -28 54 -30 174 -3 226 34 65 85 108
156 131 43 14 152 4 196 -19z m579 9 c46 -21 79 -54 94 -94 6 -16 11 -103 11
-203 l0 -174 -69 0 -70 0 -3 154 c-3 148 -4 156 -27 180 -19 20 -34 26 -65 26
-82 -1 -96 -33 -96 -221 l0 -139 -75 0 -75 0 0 240 0 240 74 0 c73 0 75 -1 78
-26 l3 -26 28 22 c54 42 128 51 192 21z m562 -17 c63 -39 103 -114 103 -190
l0 -54 -165 0 c-154 0 -165 -1 -165 -19 0 -28 37 -69 69 -76 31 -7 91 17 91
35 0 6 35 10 81 10 79 0 80 0 74 -22 -12 -42 -60 -93 -111 -118 -58 -30 -156
-33 -216 -6 -160 70 -188 324 -47 428 76 57 205 62 286 12z m-1597 -214 l0
-240 -70 0 -70 0 0 240 0 240 70 0 70 0 0 -240z m-489 -566 c24 -22 10 -40
-19 -25 -50 27 -119 0 -96 -36 6 -9 29 -22 53 -29 55 -16 81 -40 81 -75 0 -39
-41 -69 -95 -69 -50 0 -98 31 -78 50 9 10 17 9 34 -4 30 -20 73 -21 93 0 23
22 5 50 -41 64 -65 21 -83 37 -83 74 0 32 18 56 50 69 24 10 81 -1 101 -19z
m963 15 c13 -7 30 -24 36 -38 14 -36 1 -72 -51 -133 l-40 -48 50 0 c39 0 51
-4 51 -15 0 -12 -15 -15 -74 -15 -42 0 -78 5 -81 11 -4 5 15 34 43 62 60 64
75 92 68 122 -8 31 -40 37 -70 14 -29 -23 -46 -24 -46 -4 0 16 55 55 77 55 7
0 23 -5 37 -11z m228 -18 c31 -28 33 -33 33 -99 0 -105 -41 -148 -121 -128
-32 8 -57 60 -57 121 -1 60 19 105 53 122 38 19 57 16 92 -16z m192 18 c13 -7
30 -24 36 -38 14 -36 1 -72 -51 -133 l-40 -48 50 0 c39 0 51 -4 51 -15 0 -12
-15 -15 -74 -15 -42 0 -78 5 -81 11 -4 5 15 34 43 62 60 64 75 92 68 122 -8
31 -40 37 -70 14 -29 -23 -46 -24 -46 -4 0 16 55 55 77 55 7 0 23 -5 37 -11z
m-1284 -14 c0 -8 -9 -15 -20 -15 -11 0 -20 7 -20 15 0 8 9 15 20 15 11 0 20
-7 20 -15z m1440 -110 c0 -104 -2 -125 -15 -125 -12 0 -15 18 -15 100 l0 100
-30 -6 c-39 -8 -41 15 -2 38 59 36 62 31 62 -107z m-1445 -31 c0 -72 -3 -89
-15 -89 -12 0 -16 17 -18 79 -3 87 1 110 21 103 8 -2 12 -30 12 -93z m80 86
c4 -7 13 -6 26 1 34 17 82 7 96 -21 19 -36 13 -155 -7 -155 -12 0 -16 17 -20
75 -5 74 -5 75 -34 78 -40 5 -50 -10 -56 -85 -3 -40 -10 -68 -17 -71 -10 -3
-13 20 -13 92 0 87 8 114 25 86z m323 -2 c22 -22 13 -27 -37 -21 -43 5 -50 3
-65 -18 -22 -32 -20 -65 5 -90 18 -18 28 -20 65 -14 28 4 44 2 44 -4 0 -16
-35 -31 -75 -31 -53 0 -85 36 -85 95 0 63 31 95 93 95 23 0 48 -5 55 -12z
m187 -13 c14 -13 25 -36 25 -50 0 -24 -2 -25 -70 -25 -76 0 -88 -11 -50 -45
19 -17 53 -17 93 0 24 10 23 -21 -2 -35 -26 -13 -77 -13 -103 1 -11 6 -26 26
-34 46 -40 94 71 179 141 108z"/>
<path d="M4241 2754 c-25 -18 -51 -71 -51 -105 0 -36 31 -89 63 -105 68 -36
147 18 147 101 0 24 -5 56 -12 70 -23 50 -101 71 -147 39z"/>
<path d="M1446 2684 c-15 -70 -15 -97 -1 -82 3 3 14 40 24 82 13 56 15 76 6
76 -7 0 -19 -33 -29 -76z"/>
<path d="M1353 2710 c-24 -10 -43 -26 -43 -34 0 -8 21 -24 46 -36 55 -24 54
-24 54 -6 0 8 -17 20 -37 29 l-37 14 37 12 c20 7 37 19 37 27 0 18 -6 18 -57
-6z"/>
<path d="M1500 2717 c0 -7 17 -19 38 -27 l37 -14 -37 -14 c-21 -8 -38 -21 -38
-29 0 -9 6 -13 13 -10 79 32 97 41 97 51 0 11 -80 56 -100 56 -6 0 -10 -6 -10
-13z"/>
<path d="M2558 2741 c-28 -25 -32 -34 -32 -84 -1 -96 67 -152 139 -113 41 22
55 53 55 117 0 42 -5 55 -29 80 -40 39 -89 40 -133 0z"/>
<path d="M3686 2754 c-46 -46 -36 -54 64 -54 82 0 90 2 90 19 0 29 -47 61 -90
61 -27 0 -45 -7 -64 -26z"/>
<path d="M2894 2038 c-31 -59 -1 -158 47 -158 29 0 49 40 49 95 0 59 -21 95
-55 95 -17 0 -29 -9 -41 -32z"/>
<path d="M2380 1990 c-10 -19 -8 -20 40 -20 51 0 60 6 38 28 -19 19 -66 15
-78 -8z"/>
</g>
</svg>
